<svg width="180" height="180" viewBox="0 0 180 180" fill="none" xmlns="http://www.w3.org/2000/svg">
  <defs>
    <linearGradient id="bg-grad" x1="0%" y1="0%" x2="100%" y2="100%">
      <stop offset="0%" stop-color="#0052CC" />
      <stop offset="100%" stop-color="#003D99" />
    </linearGradient>
  </defs>

  <!-- Background rounded rectangle -->
  <rect width="180" height="180" rx="45" fill="url(#bg-grad)" />

  <!-- Graduation Cap (Lucide icon) nested with viewBox -->
  <svg x="32" y="32" width="116" height="116" viewBox="0 0 24 24" fill="none" stroke="white" stroke-width="1.8" stroke-linecap="round" stroke-linejoin="round">
    <path d="M21.42 10.922a1 1 0 0 0-.019-1.838L12.83 5.18a2 2 0 0 0-1.66 0L2.6 9.08a1 1 0 0 0 0 1.832l8.57 3.908a2 2 0 0 0 1.66 0z"/>
    <path d="M6 12v5c0 2 2 3 6 3s6-1 6-3v-5"/>
    <path d="M21.5 12v6"/>
  </svg>
</svg>